<svg width="179" height="69" viewBox="0 0 179 69" fill="none" xmlns="http://www.w3.org/2000/svg">
<g clip-path="url(#clip0_2_36)">
<path d="M62.3254 21.3734V24.8924H67.0599V27.1245H62.3254V30.8446H67.6643V33.1369H59.5049V19.081H67.6643V21.3734H62.3254ZM73.0479 18.2566V33.1369H70.2274V18.2566H73.0479ZM86.21 27.3256C86.21 27.7278 86.1832 28.0897 86.1293 28.4114H77.97C78.0373 29.2157 78.3193 29.8458 78.8162 30.3016C79.3131 30.7574 79.9243 30.9854 80.6495 30.9854C81.6972 30.9854 82.4426 30.5362 82.8858 29.638H85.9278C85.6056 30.7105 84.9877 31.5953 84.0745 32.2923C83.1612 32.9762 82.0396 33.3179 80.71 33.3179C79.6355 33.3179 78.6686 33.0833 77.809 32.6141C76.9628 32.1314 76.2979 31.4546 75.8144 30.5831C75.3444 29.7117 75.1093 28.7063 75.1093 27.5669C75.1093 26.414 75.3444 25.4017 75.8144 24.5304C76.2845 23.659 76.9426 22.9889 77.7888 22.5197C78.6349 22.0505 79.6087 21.8159 80.71 21.8159C81.7711 21.8159 82.718 22.0436 83.5505 22.4995C84.3967 22.9552 85.0482 23.6055 85.5048 24.45C85.9749 25.2811 86.21 26.2396 86.21 27.3256ZM83.2888 26.5212C83.2753 25.7972 83.0134 25.2209 82.5031 24.7918C81.9926 24.3495 81.3681 24.1282 80.6295 24.1282C79.9309 24.1282 79.3401 24.3427 78.8565 24.7718C78.3864 25.1873 78.0976 25.7704 77.9902 26.5212H83.2888ZM87.5434 27.5669C87.5434 26.414 87.7785 25.4086 88.2485 24.5505C88.7186 23.6792 89.3701 23.0088 90.2027 22.5396C91.0354 22.0571 91.9891 21.8159 93.0636 21.8159C94.4469 21.8159 95.5885 22.1643 96.4884 22.8614C97.4016 23.5451 98.0128 24.5103 98.3217 25.7571H95.2797C95.1185 25.2745 94.8431 24.8991 94.4535 24.6311C94.0776 24.3495 93.6075 24.2088 93.0434 24.2088C92.2375 24.2088 91.5996 24.5036 91.1295 25.0934C90.6593 25.6699 90.4243 26.4944 90.4243 27.5669C90.4243 28.6259 90.6593 29.4503 91.1295 30.0402C91.5996 30.6167 92.2375 30.9049 93.0434 30.9049C94.185 30.9049 94.9304 30.3954 95.2797 29.3766H98.3217C98.0128 30.5831 97.4016 31.5416 96.4884 32.2522C95.5751 32.9627 94.4335 33.3179 93.0636 33.3179C91.9891 33.3179 91.0354 33.0833 90.2027 32.6141C89.3701 32.1314 88.7186 31.4612 88.2485 30.6032C87.7785 29.7319 87.5434 28.7197 87.5434 27.5669ZM103.672 24.3093V29.6984C103.672 30.0738 103.759 30.3485 103.934 30.5228C104.122 30.6837 104.431 30.7641 104.861 30.7641H106.17V33.1369H104.397C102.02 33.1369 100.831 31.984 100.831 29.6783V24.3093H99.5018V21.9967H100.831V19.2419H103.672V21.9967H106.17V24.3093H103.672ZM111.019 23.7261C111.382 23.1363 111.852 22.6737 112.43 22.3386C113.02 22.0035 113.692 21.8358 114.444 21.8358V24.7918H113.699C112.812 24.7918 112.141 24.9996 111.684 25.4152C111.241 25.8308 111.019 26.5548 111.019 27.587V33.1369H108.199V21.9967H111.019V23.7261ZM117.774 20.6696C117.277 20.6696 116.861 20.5154 116.525 20.2071C116.203 19.8853 116.042 19.4898 116.042 19.0206C116.042 18.5514 116.203 18.1627 116.525 17.8544C116.861 17.5327 117.277 17.3718 117.774 17.3718C118.271 17.3718 118.681 17.5327 119.003 17.8544C119.339 18.1627 119.507 18.5514 119.507 19.0206C119.507 19.4898 119.339 19.8853 119.003 20.2071C118.681 20.5154 118.271 20.6696 117.774 20.6696ZM119.164 21.9967V33.1369H116.344V21.9967H119.164ZM121.226 27.5669C121.226 26.414 121.461 25.4086 121.931 24.5505C122.401 23.6792 123.052 23.0088 123.885 22.5396C124.718 22.0571 125.671 21.8159 126.746 21.8159C128.129 21.8159 129.271 22.1643 130.171 22.8614C131.084 23.5451 131.695 24.5103 132.004 25.7571H128.962C128.801 25.2745 128.525 24.8991 128.136 24.6311C127.76 24.3495 127.29 24.2088 126.726 24.2088C125.92 24.2088 125.282 24.5036 124.812 25.0934C124.342 25.6699 124.107 26.4944 124.107 27.5669C124.107 28.6259 124.342 29.4503 124.812 30.0402C125.282 30.6167 125.92 30.9049 126.726 30.9049C127.867 30.9049 128.613 30.3954 128.962 29.3766H132.004C131.695 30.5831 131.084 31.5416 130.171 32.2522C129.257 32.9627 128.116 33.3179 126.746 33.3179C125.671 33.3179 124.718 33.0833 123.885 32.6141C123.052 32.1314 122.401 31.4612 121.931 30.6032C121.461 29.7319 121.226 28.7197 121.226 27.5669ZM133.345 27.5266C133.345 26.4005 133.567 25.4017 134.01 24.5304C134.467 23.659 135.078 22.9889 135.843 22.5197C136.622 22.0505 137.489 21.8159 138.442 21.8159C139.275 21.8159 140 21.9834 140.618 22.3185C141.249 22.6536 141.753 23.0759 142.129 23.5853V21.9967H144.97V33.1369H142.129V31.5082C141.766 32.0309 141.263 32.4667 140.618 32.8153C139.987 33.1504 139.255 33.3179 138.422 33.3179C137.482 33.3179 136.622 33.0767 135.843 32.594C135.078 32.1115 134.467 31.4345 134.01 30.5631C133.567 29.6783 133.345 28.6662 133.345 27.5266ZM142.129 27.5669C142.129 26.8832 141.995 26.3 141.726 25.8174C141.457 25.3214 141.095 24.946 140.638 24.6913C140.182 24.4232 139.691 24.2891 139.167 24.2891C138.644 24.2891 138.16 24.4164 137.717 24.6712C137.274 24.9259 136.911 25.3012 136.629 25.7972C136.36 26.2799 136.226 26.8564 136.226 27.5266C136.226 28.197 136.36 28.7868 136.629 29.2963C136.911 29.7923 137.274 30.1743 137.717 30.4423C138.174 30.7105 138.657 30.8446 139.167 30.8446C139.691 30.8446 140.182 30.7172 140.638 30.4624C141.095 30.1944 141.457 29.819 141.726 29.3364C141.995 28.8404 142.129 28.2505 142.129 27.5669ZM150.545 18.2566V33.1369H147.724V18.2566H150.545ZM61.4994 36.5669V51.4472H59.6661V36.5669H61.4994ZM63.9391 45.8973C63.9391 44.7713 64.1675 43.7859 64.6241 42.9414C65.0807 42.0833 65.7054 41.4198 66.4977 40.9506C67.3036 40.4814 68.1968 40.2468 69.1772 40.2468C70.1443 40.2468 70.9837 40.4545 71.6955 40.8701C72.4074 41.2857 72.9378 41.8085 73.2871 42.4386V40.4277H75.1406V51.4472H73.2871V49.3962C72.9244 50.0396 72.3804 50.5759 71.6552 51.0048C70.9434 51.4204 70.1107 51.6282 69.1571 51.6282C68.1766 51.6282 67.2902 51.387 66.4977 50.9043C65.7054 50.4218 65.0807 49.7448 64.6241 48.8734C64.1675 48.0019 63.9391 47.0099 63.9391 45.8973ZM73.2871 45.9173C73.2871 45.0862 73.1192 44.3623 72.7834 43.7457C72.4477 43.1291 71.9911 42.6599 71.4135 42.3381C70.8493 42.003 70.2248 41.8353 69.5399 41.8353C68.8549 41.8353 68.2303 41.9962 67.6663 42.3179C67.1021 42.6397 66.6523 43.1089 66.3164 43.7255C65.9806 44.3422 65.8127 45.0661 65.8127 45.8973C65.8127 46.7419 65.9806 47.4791 66.3164 48.1092C66.6523 48.7259 67.1021 49.2019 67.6663 49.537C68.2303 49.8587 68.8549 50.0195 69.5399 50.0195C70.2248 50.0195 70.8493 49.8587 71.4135 49.537C71.9911 49.2019 72.4477 48.7259 72.7834 48.1092C73.1192 47.4791 73.2871 46.7486 73.2871 45.9173ZM80.0719 42.4788C80.448 41.822 80.9988 41.2857 81.724 40.8701C82.4492 40.4545 83.2753 40.2468 84.202 40.2468C85.196 40.2468 86.0891 40.4814 86.8815 40.9506C87.6739 41.4198 88.2985 42.0833 88.7551 42.9414C89.2118 43.7859 89.4401 44.7713 89.4401 45.8973C89.4401 47.0099 89.2118 48.0019 88.7551 48.8734C88.2985 49.7448 87.6672 50.4218 86.8613 50.9043C86.069 51.387 85.1824 51.6282 84.202 51.6282C83.2485 51.6282 82.409 51.4204 81.6837 51.0048C80.9719 50.5893 80.4346 50.0597 80.0719 49.4163V51.4472H78.2388V36.5669H80.0719V42.4788ZM87.5665 45.8973C87.5665 45.0661 87.3986 44.3422 87.0628 43.7255C86.7271 43.1089 86.2705 42.6397 85.6929 42.3179C85.1287 41.9962 84.5043 41.8353 83.8193 41.8353C83.1478 41.8353 82.5231 42.003 81.9457 42.3381C81.3815 42.6599 80.9249 43.1357 80.5756 43.7658C80.2399 44.3824 80.0719 45.0997 80.0719 45.9173C80.0719 46.7486 80.2399 47.4791 80.5756 48.1092C80.9249 48.7259 81.3815 49.2019 81.9457 49.537C82.5231 49.8587 83.1478 50.0195 83.8193 50.0195C84.5043 50.0195 85.1287 49.8587 85.6929 49.537C86.2705 49.2019 86.7271 48.7259 87.0628 48.1092C87.3986 47.4791 87.5665 46.7419 87.5665 45.8973ZM96.6683 51.6282C95.6341 51.6282 94.6938 51.3936 93.8478 50.9244C93.0151 50.4552 92.357 49.7917 91.8733 48.9337C91.4033 48.0623 91.1683 47.0569 91.1683 45.9173C91.1683 44.7912 91.4101 43.7992 91.8935 42.9414C92.3904 42.0699 93.062 41.4063 93.9081 40.9506C94.7543 40.4814 95.7012 40.2468 96.7489 40.2468C97.7965 40.2468 98.7434 40.4814 99.5894 40.9506C100.436 41.4063 101.1 42.0632 101.584 42.9212C102.081 43.7791 102.329 44.7779 102.329 45.9173C102.329 47.0569 102.074 48.0623 101.564 48.9337C101.067 49.7917 100.389 50.4552 99.5291 50.9244C98.6695 51.3936 97.7158 51.6282 96.6683 51.6282ZM96.6683 50.0195C97.3264 50.0195 97.9441 49.8654 98.5217 49.5571C99.0993 49.2488 99.5626 48.7862 99.9118 48.1695C100.275 47.5529 100.456 46.8021 100.456 45.9173C100.456 45.0326 100.281 44.2819 99.932 43.6651C99.5828 43.0485 99.1261 42.5928 98.562 42.2978C97.998 41.9895 97.3868 41.8353 96.7286 41.8353C96.0571 41.8353 95.4393 41.9895 94.8753 42.2978C94.3245 42.5928 93.8813 43.0485 93.5456 43.6651C93.2098 44.2819 93.0419 45.0326 93.0419 45.9173C93.0419 46.8156 93.2031 47.573 93.5254 48.1896C93.8612 48.8064 94.3045 49.2688 94.855 49.5772C95.4058 49.8721 96.01 50.0195 96.6683 50.0195ZM106.573 42.2174C106.895 41.5874 107.352 41.098 107.943 40.7495C108.547 40.4009 109.279 40.2267 110.139 40.2267V42.1168H109.655C107.601 42.1168 106.573 43.2296 106.573 45.4549V51.4472H104.74V40.4277H106.573V42.2174ZM111.57 45.8973C111.57 44.7713 111.799 43.7859 112.255 42.9414C112.712 42.0833 113.337 41.4198 114.129 40.9506C114.935 40.4814 115.828 40.2468 116.808 40.2468C117.775 40.2468 118.615 40.4545 119.327 40.8701C120.039 41.2857 120.569 41.8085 120.918 42.4386V40.4277H122.772V51.4472H120.918V49.3962C120.556 50.0396 120.012 50.5759 119.287 51.0048C118.575 51.4204 117.742 51.6282 116.788 51.6282C115.808 51.6282 114.921 51.387 114.129 50.9043C113.337 50.4218 112.712 49.7448 112.255 48.8734C111.799 48.0019 111.57 47.0099 111.57 45.8973ZM120.918 45.9173C120.918 45.0862 120.75 44.3623 120.415 43.7457C120.079 43.1291 119.622 42.6599 119.045 42.3381C118.481 42.003 117.856 41.8353 117.171 41.8353C116.486 41.8353 115.862 41.9962 115.297 42.3179C114.733 42.6397 114.283 43.1089 113.948 43.7255C113.612 44.3422 113.444 45.0661 113.444 45.8973C113.444 46.7419 113.612 47.4791 113.948 48.1092C114.283 48.7259 114.733 49.2019 115.297 49.537C115.862 49.8587 116.486 50.0195 117.171 50.0195C117.856 50.0195 118.481 49.8587 119.045 49.537C119.622 49.2019 120.079 48.7259 120.415 48.1092C120.75 47.4791 120.918 46.7486 120.918 45.9173ZM128.106 41.9359V48.431C128.106 48.9673 128.22 49.3493 128.449 49.5772C128.677 49.7917 129.073 49.8988 129.637 49.8988H130.987V51.4472H129.335C128.314 51.4472 127.549 51.2126 127.038 50.7434C126.528 50.2742 126.273 49.5034 126.273 48.431V41.9359H124.842V40.4277H126.273V37.6527H128.106V40.4277H130.987V41.9359H128.106ZM138.023 51.6282C136.989 51.6282 136.049 51.3936 135.203 50.9244C134.37 50.4552 133.712 49.7917 133.229 48.9337C132.759 48.0623 132.523 47.0569 132.523 45.9173C132.523 44.7912 132.765 43.7992 133.249 42.9414C133.746 42.0699 134.417 41.4063 135.263 40.9506C136.11 40.4814 137.056 40.2468 138.104 40.2468C139.152 40.2468 140.099 40.4814 140.945 40.9506C141.791 41.4063 142.456 42.0632 142.939 42.9212C143.436 43.7791 143.685 44.7779 143.685 45.9173C143.685 47.0569 143.429 48.0623 142.919 48.9337C142.422 49.7917 141.744 50.4552 140.884 50.9244C140.025 51.3936 139.071 51.6282 138.023 51.6282ZM138.023 50.0195C138.682 50.0195 139.299 49.8654 139.877 49.5571C140.454 49.2488 140.918 48.7862 141.267 48.1695C141.63 47.5529 141.811 46.8021 141.811 45.9173C141.811 45.0326 141.636 44.2819 141.287 43.6651C140.938 43.0485 140.481 42.5928 139.917 42.2978C139.353 41.9895 138.742 41.8353 138.084 41.8353C137.412 41.8353 136.795 41.9895 136.23 42.2978C135.68 42.5928 135.237 43.0485 134.901 43.6651C134.565 44.2819 134.397 45.0326 134.397 45.9173C134.397 46.8156 134.558 47.573 134.881 48.1896C135.216 48.8064 135.66 49.2688 136.21 49.5772C136.761 49.8721 137.365 50.0195 138.023 50.0195ZM147.928 42.2174C148.251 41.5874 148.708 41.098 149.298 40.7495C149.903 40.4009 150.635 40.2267 151.494 40.2267V42.1168H151.011C148.956 42.1168 147.928 43.2296 147.928 45.4549V51.4472H146.095V40.4277H147.928V42.2174ZM154.558 38.6381C154.209 38.6381 153.913 38.5174 153.671 38.2762C153.429 38.0347 153.308 37.7399 153.308 37.3913C153.308 37.0428 153.429 36.7478 153.671 36.5065C153.913 36.2653 154.209 36.1446 154.558 36.1446C154.893 36.1446 155.175 36.2653 155.404 36.5065C155.646 36.7478 155.766 37.0428 155.766 37.3913C155.766 37.7399 155.646 38.0347 155.404 38.2762C155.175 38.5174 154.893 38.6381 154.558 38.6381ZM155.444 40.4277V51.4472H153.611V40.4277H155.444ZM168.642 45.5152C168.642 45.8637 168.622 46.2324 168.582 46.6211H159.757C159.824 47.7071 160.194 48.5583 160.865 49.1749C161.55 49.7782 162.376 50.0799 163.343 50.0799C164.135 50.0799 164.793 49.8988 165.317 49.537C165.855 49.1616 166.231 48.6656 166.446 48.0488H168.42C168.124 49.108 167.534 49.9726 166.648 50.6429C165.76 51.2998 164.659 51.6282 163.343 51.6282C162.295 51.6282 161.356 51.3936 160.523 50.9244C159.703 50.4552 159.059 49.7917 158.589 48.9337C158.119 48.0623 157.884 47.0569 157.884 45.9173C157.884 44.7779 158.112 43.7791 158.569 42.9212C159.025 42.0632 159.663 41.4063 160.483 40.9506C161.315 40.4814 162.269 40.2468 163.343 40.2468C164.39 40.2468 165.317 40.4746 166.124 40.9305C166.929 41.3862 167.547 42.0163 167.977 42.8206C168.42 43.6116 168.642 44.5097 168.642 45.5152ZM166.748 45.1331C166.748 44.436 166.593 43.8395 166.284 43.3435C165.975 42.8341 165.553 42.452 165.015 42.1973C164.492 41.9291 163.907 41.7952 163.263 41.7952C162.335 41.7952 161.543 42.09 160.885 42.6798C160.241 43.2698 159.871 44.0874 159.777 45.1331H166.748ZM174.97 51.6282C174.123 51.6282 173.365 51.4875 172.694 51.206C172.023 50.911 171.492 50.5088 171.103 49.9995C170.713 49.4766 170.498 48.8801 170.457 48.2097H172.351C172.404 48.7595 172.66 49.2085 173.117 49.5571C173.586 49.9057 174.197 50.0799 174.949 50.0799C175.65 50.0799 176.199 49.9256 176.602 49.6173C177.005 49.309 177.207 48.9203 177.207 48.4511C177.207 47.9685 176.992 47.6132 176.562 47.3853C176.131 47.144 175.467 46.9094 174.568 46.6815C173.748 46.467 173.075 46.2526 172.553 46.0381C172.042 45.8102 171.599 45.4817 171.222 45.0528C170.86 44.6104 170.679 44.0338 170.679 43.3234C170.679 42.7604 170.847 42.2442 171.183 41.775C171.518 41.3058 171.995 40.9371 172.614 40.6691C173.231 40.3876 173.936 40.2468 174.728 40.2468C175.95 40.2468 176.938 40.5551 177.69 41.1717C178.442 41.7883 178.845 42.6329 178.898 43.7054H177.066C177.024 43.1291 176.791 42.6665 176.359 42.3179C175.944 41.9694 175.379 41.7952 174.668 41.7952C174.01 41.7952 173.486 41.9359 173.096 42.2174C172.707 42.499 172.513 42.8675 172.513 43.3234C172.513 43.6853 172.627 43.9869 172.854 44.2282C173.096 44.4561 173.392 44.6438 173.74 44.7912C174.104 44.9253 174.6 45.0796 175.232 45.2538C176.025 45.4682 176.67 45.6827 177.166 45.8973C177.663 46.0983 178.086 46.4066 178.436 46.8223C178.798 47.2379 178.985 47.7808 179 48.4511C179 49.0543 178.832 49.5972 178.495 50.0799C178.159 50.5626 177.684 50.9446 177.066 51.2261C176.461 51.4941 175.761 51.6282 174.97 51.6282Z" fill="white"/>
<path d="M2.52033 12.5012H31.6927C32.3178 12.5012 32.8245 13.01 32.8245 13.6376V20.1318C32.8245 20.7594 32.3178 21.2682 31.6927 21.2682H20.3738C19.7487 21.2682 19.2419 21.777 19.2419 22.4047V44.9718C19.2419 45.5994 18.7351 46.1082 18.11 46.1082H11.6421C11.0169 46.1082 10.5102 45.5994 10.5102 44.9718V22.4047C10.5102 21.777 10.0034 21.2682 9.3783 21.2682H8.26961C7.9463 21.2682 7.63842 21.1294 7.42362 20.8869L1.67434 14.3927C1.0255 13.6598 1.54369 12.5012 2.52033 12.5012Z" fill="white"/>
<path d="M3.01828 54.8915L8.88382 48.8845C9.0967 48.6664 9.39356 48.5434 9.69763 48.544C31.9802 48.5817 43.6322 51.1808 46.0703 35.4811C46.0792 35.4243 46.0839 35.364 46.0839 35.3064V20.1675C46.0839 19.1964 47.2035 18.6969 47.8663 19.4039C59.2488 31.5465 54.7295 53.3594 32.9124 56.8097C32.8552 56.8188 32.7955 56.8235 32.7374 56.8235H3.82654C2.82353 56.8235 2.3161 55.6106 3.01828 54.8915Z" fill="white"/>
<path d="M60.9324 0H17.1756C16.2086 0 15.6868 1.13888 16.3161 1.87607L21.1671 7.55842C21.3822 7.81033 21.6962 7.95529 22.0265 7.95529H34.1183C34.7434 7.95529 35.2502 8.46411 35.2502 9.09177V43.6247C35.2502 44.4685 36.1357 45.0166 36.8695 44.6053C40.6991 42.4594 42.1073 40.5988 43.7012 37.4181C43.7796 37.2616 43.8202 37.0876 43.8202 36.9124V9.09177C43.8202 8.46411 44.327 7.95529 44.9521 7.95529H55.6195C55.9321 7.95529 56.2307 7.82549 56.4446 7.59666L61.7576 1.91432C62.4361 1.18868 61.9236 0 60.9324 0Z" fill="white"/>
<path d="M43.82 66.5088V58.0382C43.82 57.1175 42.7851 56.5793 41.9894 57.0367C40.2156 58.0561 38.6709 58.4789 36.4454 58.4813C35.7962 58.482 35.25 58.995 35.25 59.6468V61.0134C35.25 61.3426 35.3923 61.6558 35.64 61.8716L41.9462 67.367C42.6791 68.0057 43.82 67.4831 43.82 66.5088Z" fill="white"/>
</g>
<defs>
<clipPath id="clip0_2_36">
<rect width="179" height="69" fill="white"/>
</clipPath>
</defs>
</svg>
