<svg xmlns="http://www.w3.org/2000/svg" version="1.1" xmlns:xlink="http://www.w3.org/1999/xlink" xmlns:svgjs="http://svgjs.com/svgjs" width="16" height="16"><svg width="16" height="16" viewBox="0 0 16 16" fill="none" xmlns="http://www.w3.org/2000/svg">
<rect width="16" height="16" fill="#1C1C1C"></rect>
<path d="M4.1341 5.47842H7.58342C7.65733 5.47842 7.71725 5.5386 7.71725 5.61282V6.38082C7.71725 6.45504 7.65733 6.51522 7.58342 6.51522H6.24508C6.17116 6.51522 6.11124 6.57539 6.11124 6.64962V9.3184C6.11124 9.39263 6.05132 9.4528 5.97741 9.4528H5.21265C5.13873 9.4528 5.07881 9.39263 5.07881 9.3184V6.64962C5.07881 6.57539 5.01889 6.51522 4.94498 6.51522H4.81389C4.77566 6.51522 4.73926 6.4988 4.71386 6.47012L4.03407 5.70211C3.95735 5.61544 4.01862 5.47842 4.1341 5.47842Z" fill="white"></path>
<path d="M4.19283 10.4915L4.88637 9.78107C4.91154 9.75528 4.94664 9.74073 4.98259 9.7408C7.61727 9.74526 8.995 10.0526 9.28327 8.19598C9.28432 8.18926 9.28488 8.18214 9.28488 8.17532V6.38499C9.28488 6.27016 9.41726 6.21108 9.49563 6.2947C10.8415 7.73067 10.3071 10.3103 7.72749 10.7183C7.72073 10.7194 7.71367 10.7199 7.70681 10.7199H4.2884C4.1698 10.7199 4.10981 10.5765 4.19283 10.4915Z" fill="white"></path>
<path d="M11.0413 4H5.86749C5.75316 4 5.69146 4.13468 5.76587 4.22186L6.33945 4.89386C6.36487 4.92365 6.402 4.94079 6.44106 4.94079H7.87079C7.94471 4.94079 8.00462 5.00097 8.00462 5.07519V9.15906C8.00462 9.25885 8.10932 9.32367 8.19608 9.27503C8.6489 9.02125 8.81541 8.80122 9.00387 8.42507C9.01314 8.40656 9.01794 8.38598 9.01794 8.36526V5.07519C9.01794 5.00097 9.07786 4.94079 9.15177 4.94079H10.4131C10.45 4.94079 10.4853 4.92544 10.5106 4.89838L11.1388 4.22639C11.2191 4.14057 11.1585 4 11.0413 4Z" fill="white"></path>
<path d="M9.0182 11.8654V10.8636C9.0182 10.7547 8.89583 10.6911 8.80175 10.7452C8.59201 10.8657 8.40937 10.9157 8.14623 10.916C8.06947 10.9161 8.00488 10.9768 8.00488 11.0539V11.2155C8.00488 11.2544 8.02171 11.2914 8.051 11.317L8.79664 11.9668C8.88329 12.0424 9.0182 11.9806 9.0182 11.8654Z" fill="white"></path>
</svg><style>@media (prefers-color-scheme: light) { :root { filter: none; } }
</style></svg>