<svg width="175" height="34" viewBox="0 0 175 34" fill="none" xmlns="http://www.w3.org/2000/svg">
<path d="M1 26.45C0.3 25.6 0.65 25.05 1.35 24.8C1.75 24.7 2.3 24.65 2.9 24.65C4.35 24.65 5.75 25.05 6.8 25.9C8.75 27.5 12.05 30 14.95 30C16.05 30 17.05 29.75 17.6 29.2C18.35 28.45 18.1 27.55 17.55 27.1C13.95 24.3 7 21.6 7 16.5C7 9.7 14.8 3.75 19.3 1.85C20.95 1.15 22 1 23.15 1C24.35 1 25.35 1.35 26.2 2.05C27.6 3.35 28.5 5 28.85 6.35C29.35 8.4 28.1 10.4 27.35 11.5C26.15 13.1 24.7 15.7 24 16.9C23.55 17.7 23 18.1 22.05 17.1C21.35 16.4 20.85 15.55 20.85 14.4C20.85 13.3 21.5 11.4 23.15 9.2C24.4 7.35 25.75 5.15 25.05 4.65C23.2 3.3 12.25 10.65 12 16.4C11.85 19.7 18.7 22.55 20.65 23.95C21.6 24.65 22.15 25.55 22.15 26.5C22.15 27.65 21.5 28.95 20.2 30.5C18.9 32 16.45 33.05 13.45 33.05C9.8 33.05 4.95 31 1 26.45ZM38.859 20.7C39.459 16.55 40.459 11.7 41.709 7.95C38.509 11.8 34.909 16.6 31.759 21.5C32.759 21.4 33.759 21.3 34.709 21.15C36.409 20.95 37.509 20.75 38.859 20.7ZM40.309 32.45C39.209 31.9 38.259 30.6 38.209 27.7C38.209 26.8 38.209 25.65 38.359 24.35L34.859 24.7C32.859 24.9 30.909 25.1 29.509 25.05C28.159 27.4 27.059 29.9 25.909 31.95C25.309 33 24.459 32.8 24.109 32.1C23.809 31.5 23.509 31.05 23.509 30.25C23.509 29.45 23.709 28.3 24.309 26.85C24.609 26.1 24.959 25.25 25.509 24.2C24.609 23.55 24.159 22.85 24.009 22.55C23.609 21.6 23.809 21.3 25.109 21.5C25.809 21.6 26.209 21.65 26.909 21.7C30.659 15.15 37.559 5.5 42.809 1.05C43.909 0.149999 44.659 0.199998 45.409 1.2C45.909 1.85 46.209 2.4 46.559 3.25C46.809 3.85 46.959 4.4 46.959 5C46.959 5.6 46.859 6.3 46.559 7.05C45.409 10.65 44.009 15.85 43.059 21.1C44.409 21.7 44.909 22.65 45.259 23.7C45.509 24.5 45.159 24.7 44.259 24.55L42.509 24.25C42.209 26.75 41.959 29.3 41.859 31.75C41.859 32.65 41.209 32.85 40.309 32.45ZM52.6262 22.2C50.7762 25.85 49.0762 29.45 48.0762 32.3C47.7262 33.25 47.2262 33.5 46.4762 32.85C45.8262 32.3 45.2762 31.05 45.2762 29.8C45.2762 29.05 45.3762 28.2 45.6262 27.35C46.1762 25.7 47.2762 23.1 48.6762 20.25C48.7762 14.35 49.1262 6.65 50.0762 2.05C50.3262 0.849999 50.8262 0.75 51.6262 1.2C52.8262 1.95 54.0262 4 53.9262 7.25C53.8262 10 53.4262 12.05 53.2262 15.65C57.7262 10.8 63.8262 4.9 67.6762 1.4C68.5762 0.55 69.2762 0.699998 69.4762 1.5C69.8262 3 69.4762 5.55 66.4762 8.5C60.7262 13.95 57.1262 17.35 52.6262 22.2Z" fill="white"/>
<path d="M101.558 9C98.4078 14.6 97.3078 16.55 96.2078 18.55C97.2578 19.1 97.8078 19.95 98.0078 20.75C98.1578 21.4 97.8078 21.8 96.8578 21.65C96.1078 21.55 95.4078 21.5 94.5578 21.5C92.9578 24.65 91.3078 28.05 89.6578 31.7C89.3078 32.5 88.4578 32.75 87.9078 31.85C87.4578 31.15 87.0578 30.4 87.0578 29.3C87.0578 28.55 87.2578 27.55 87.7078 26.2C88.0578 25.25 88.7078 23.6 89.5078 21.95C86.4078 22.35 83.2078 22.95 80.9578 22.95C79.5078 25.95 78.0578 29.15 76.6078 32.35C76.2578 33.2 75.3578 33.45 74.7578 32.6C74.3078 32 73.9078 31.15 73.9078 30C73.9078 28.55 74.4078 27.05 76.5078 22.1C75.5078 21.55 75.1078 20.95 74.9078 20.6C74.4078 19.65 74.7078 19.3 76.0578 19.4C76.8078 19.45 77.1078 19.55 77.6578 19.55C80.7578 13.1 85.3078 4.8 87.4078 1.8C88.2078 0.75 88.9578 0.899998 89.5078 1.85C89.8078 2.4 89.9578 3.05 89.9578 3.9C89.9578 5.3 89.5078 7.25 88.3078 9.45L82.9578 19.2C86.1078 18.75 88.6578 18.1 91.4078 17.85C94.6078 11.5 98.9078 3.85 100.908 1.2C101.808 0.0499971 102.558 0.199998 103.058 1.3C103.308 1.85 103.508 2.45 103.508 3.2C103.508 4.6 103.008 6.5 101.558 9ZM96.7219 30.1C96.3219 29.45 96.4219 28.8 96.9219 27.4C99.1719 21.5 103.972 12.45 108.122 6C106.972 5.25 106.372 4.45 106.122 3.5C105.972 2.8 106.522 2.5 107.272 2.5C110.022 2.5 112.672 2.2 115.072 1.8C116.772 1.55 118.172 1.3 119.472 1.3C121.772 1.25 123.022 2.15 123.672 3.9C123.872 4.45 123.522 4.9 122.572 4.9C120.072 4.9 117.372 5.4 115.022 5.85C114.272 6 113.772 6.1 113.022 6.2C111.372 8.7 109.072 12.85 106.722 17.1C107.772 16.95 108.622 16.9 109.322 16.85C112.072 16.75 113.372 17.65 113.922 19.25C114.172 19.9 114.072 20.4 112.922 20.4C110.472 20.4 106.972 21 104.272 21.7C102.872 24.35 101.822 26.4 100.822 28.65C102.872 28.1 106.022 27.55 107.622 27.45C110.322 27.35 111.722 28.15 112.322 29.8C112.572 30.5 112.422 30.9 111.372 30.9C108.722 30.85 103.372 32.15 100.622 32.9C99.4219 33.25 98.6219 33.25 97.9719 32.3C97.6219 31.8 97.2719 31 96.7219 30.1ZM129.254 9C124.904 16.95 121.654 22.55 118.904 28.4C121.354 27.8 123.754 27.45 125.554 27.3C128.304 27.1 129.754 28.15 130.404 29.7C130.654 30.3 130.554 30.8 129.404 30.8C127.054 30.75 121.704 32 118.854 32.75C117.404 33.1 116.754 33.1 116.054 32.1C115.554 31.4 114.904 30.5 114.704 29.95C114.354 29.05 114.354 28.25 114.854 26.9C117.254 20.8 125.504 5.8 128.604 1.6C129.404 0.499997 130.004 0.849999 130.504 1.75C130.754 2.25 130.954 3 130.954 3.8C130.954 5.05 130.504 6.8 129.254 9ZM146.88 9C142.53 16.95 139.28 22.55 136.53 28.4C138.98 27.8 141.38 27.45 143.18 27.3C145.93 27.1 147.38 28.15 148.03 29.7C148.28 30.3 148.18 30.8 147.03 30.8C144.68 30.75 139.33 32 136.48 32.75C135.03 33.1 134.38 33.1 133.68 32.1C133.18 31.4 132.53 30.5 132.33 29.95C131.98 29.05 131.98 28.25 132.48 26.9C134.88 20.8 143.13 5.8 146.23 1.6C147.03 0.499997 147.63 0.849999 148.13 1.75C148.38 2.25 148.58 3 148.58 3.8C148.58 5.05 148.13 6.8 146.88 9ZM166.254 0.599999C168.054 0.599999 169.454 1.2 170.304 2.1C173.554 3.55 174.854 6.6 174.854 10.15C174.854 13.85 173.554 18.15 171.654 21.65C168.254 27.85 163.204 33 157.454 33C156.254 33 155.204 32.8 154.104 32.4C149.804 30.8 148.154 27.05 148.154 22.9C148.154 12.35 157.554 3.1 163.254 1.1C164.254 0.75 165.204 0.599999 166.254 0.599999ZM155.804 30.25C158.904 30.25 163.554 26.45 167.104 19.95C169.504 15.5 170.504 11.3 170.504 8.25C170.504 5.85 170.004 4.25 168.954 3.85C166.754 3.05 160.854 6.35 156.304 13.3C153.754 17.25 152.654 21.55 152.654 24.8C152.654 28.3 153.904 30.25 155.804 30.25Z" fill="#DBF146"/>
</svg>
